<svg xmlns="http://www.w3.org/2000/svg" width="35" height="28.748" viewBox="0 0 35 28.748">
    <defs>
        <style>
            .cls-1{fill:#32353c}
        </style>
    </defs>
    <path id="ios-airplane" d="M61.326 83.874c-.266 0-1.156.008-1.406.023l-5.07.133a.145.145 0 0 1-.133-.07l-7.6-11.382A1.256 1.256 0 0 0 46.062 72H44.21c-.437 0-.586.437-.43.844L47.694 84a.153.153 0 0 1-.141.211l-9.562.141a.629.629 0 0 1-.516-.242l-2.89-3.515a1.24 1.24 0 0 0-.984-.477h-1.312a.311.311 0 0 0-.3.414l1.558 5.368a1.273 1.273 0 0 1 0 .93l-1.555 5.367a.311.311 0 0 0 .3.414h1.3a1.263 1.263 0 0 0 .984-.477l2.945-3.57a.64.64 0 0 1 .516-.242l9.507.211a.155.155 0 0 1 .141.211L43.773 99.9c-.156.406-.008.844.43.844h1.851a1.246 1.246 0 0 0 1.055-.578L54.717 88.8a.153.153 0 0 1 .133-.07l5.07.133a40.91 40.91 0 0 0 1.406.023c3.461 0 5.648-1.117 5.648-2.5s-2.179-2.512-5.648-2.512z" class="cls-1" transform="translate(-31.974 -72)"/>
</svg>
