<svg xmlns="http://www.w3.org/2000/svg" width="68.294" height="68.294" viewBox="0 0 68.294 68.294">
    <defs>
        <style>
            .cls-1{fill:#33363b}
        </style>
    </defs>
    <path id="ICON_4" d="M34.147 5.691A28.456 28.456 0 1 1 5.691 34.147 28.488 28.488 0 0 1 34.147 5.691zm0-5.691a34.147 34.147 0 1 0 34.147 34.147A34.149 34.149 0 0 0 34.147 0zM37.7 48.375a3.557 3.557 0 1 1-3.557-3.557 3.556 3.556 0 0 1 3.557 3.557zm3.964-28.45a10.046 10.046 0 0 0-7.259-2.718c-6.2 0-10.216 4.411-10.216 11.24h5.723c0-4.229 2.359-5.728 4.376-5.728a3.761 3.761 0 0 1 3.881 3.489c.177 2.41-1.11 3.634-2.737 5.182-4.018 3.822-4.092 5.671-4.075 9.869h5.705c-.037-1.89.085-3.423 2.661-6.2 1.927-2.077 4.323-4.661 4.371-8.6a8.907 8.907 0 0 0-2.426-6.534z" class="cls-1" data-name="ICON 4"/>
</svg>
