<svg xmlns="http://www.w3.org/2000/svg" width="80" height="66.667" viewBox="0 0 80 66.667">
    <defs>
        <style>
            .cls-1{fill:#33363b}
        </style>
    </defs>
    <path id="ICON_2" d="M54.78 58.624a28.825 28.825 0 0 0 5.23-2.448l3.963 5.136a35.556 35.556 0 0 1-7.593 3.514zM21.1 47.754l-4 5.635a34.421 34.421 0 0 0 4.753 4.844l3.607-5.425a27.382 27.382 0 0 1-4.36-5.054zM17.18 28.57C19.547 15.961 31.09 6.349 45 6.349c15.623 0 28.333 12.1 28.333 26.983a26.248 26.248 0 0 1-8.12 18.873L69.2 57.37A32.47 32.47 0 0 0 80 33.333C80 14.927 64.323 0 45 0 27.373 0 12.837 12.425 10.41 28.571H0l13.333 18.783 13.334-18.783zm19.15 30.393a28.76 28.76 0 0 1-5.53-2.326l-3.55 5.343a35.534 35.534 0 0 0 7.337 3.12zm11.97 1.156a21.935 21.935 0 0 1-5.41.067l-1.777 6.26A33.717 33.717 0 0 0 49.9 66.3z" class="cls-1" data-name="ICON 2"/>
</svg>
