<svg xmlns="http://www.w3.org/2000/svg" width="21.949" height="21.105" viewBox="0 0 21.949 21.105">
    <path d="M16.04 0h-.053a6 6 0 0 0-5.012 2.744A6 6 0 0 0 5.962 0h-.053A5.965 5.965 0 0 0 0 5.962a12.843 12.843 0 0 0 2.522 7 44.2 44.2 0 0 0 8.453 8.138 44.2 44.2 0 0 0 8.452-8.141 12.843 12.843 0 0 0 2.522-7A5.965 5.965 0 0 0 16.04 0zm2.195 12.093a40.469 40.469 0 0 1-7.26 7.155 40.529 40.529 0 0 1-7.26-7.16 11.383 11.383 0 0 1-2.237-6.126 4.477 4.477 0 0 1 4.443-4.48h.047a4.424 4.424 0 0 1 2.169.57 4.61 4.61 0 0 1 1.6 1.5 1.482 1.482 0 0 0 2.48 0 4.656 4.656 0 0 1 1.6-1.5 4.423 4.423 0 0 1 2.169-.57h.047a4.477 4.477 0 0 1 4.443 4.48 11.527 11.527 0 0 1-2.241 6.131z"/>
</svg>
