<svg xmlns="http://www.w3.org/2000/svg" width="25.25" height="25.25" viewBox="0 0 25.25 25.25">
    <defs>
        <style>
            .cls-1{fill:#32353c}
        </style>
    </defs>
    <path id="logo-facebook" d="M65.394 64A1.4 1.4 0 0 0 64 65.394v22.462a1.4 1.4 0 0 0 1.394 1.394h11.231v-9.995h-3.018v-3.682h3.018v-2.722c0-3.261 2.262-5.037 5.175-5.037 1.394 0 2.893.105 3.242.151v3.406h-2.321c-1.585 0-1.887.75-1.887 1.854v2.347h3.774l-.493 3.682h-3.282v9.996h7.023a1.4 1.4 0 0 0 1.394-1.394V65.394z" class="cls-1" transform="translate(-64 -64)"/>
</svg>
