<svg xmlns="http://www.w3.org/2000/svg" width="24" height="24" viewBox="0 0 24 24">
    <defs>
        <style>
            .cls-1{fill:#32353c}
        </style>
    </defs>
    <g id="logo-instagram" transform="translate(-64 -64)">
        <path id="Path_6" d="M81 66a5.015 5.015 0 0 1 5 5v10a5.015 5.015 0 0 1-5 5H71a5.015 5.015 0 0 1-5-5V71a5.015 5.015 0 0 1 5-5h10m0-2H71a7.021 7.021 0 0 0-7 7v10a7.021 7.021 0 0 0 7 7h10a7.021 7.021 0 0 0 7-7V71a7.021 7.021 0 0 0-7-7z" class="cls-1" data-name="Path 6"/>
        <path id="Path_7" d="M172.5 131a1.5 1.5 0 1 1 1.5-1.5 1.5 1.5 0 0 1-1.5 1.5zm-6.5 1a4 4 0 1 1-4 4 4 4 0 0 1 4-4m0-2a6 6 0 1 0 6 6 6 6 0 0 0-6-6z" class="cls-1" data-name="Path 7" transform="translate(-90 -60)"/>
    </g>
</svg>
