<svg xmlns="http://www.w3.org/2000/svg" width="40" height="26.667" viewBox="0 0 40 26.667">
    <defs>
        <style>
            .cls-1{fill:#fff;opacity:.7}
        </style>
    </defs>
    <path id="mastercard_inverse" d="M25.733 20.8a.533.533 0 1 1-.533-.533c.4-.134.533.133.533.533zM14.4 20.133a.533.533 0 1 0 .533.533.488.488 0 0 0-.533-.533zm5.733 0c-.267 0-.4.133-.533.4h.933a.426.426 0 0 0-.4-.4zm8.667 0a.533.533 0 1 0 .533.533.574.574 0 0 0-.533-.533zM40 3.333v20a3.3 3.3 0 0 1-3.333 3.333H3.333A3.3 3.3 0 0 1 0 23.333v-20A3.3 3.3 0 0 1 3.333 0h33.334A3.3 3.3 0 0 1 40 3.333zM9.2 11.6a6.6 6.6 0 0 0 6.667 6.667 7.039 7.039 0 0 0 3.467-.933 7.213 7.213 0 0 1 0-11.2 6.46 6.46 0 0 0-3.467-.934A6.462 6.462 0 0 0 9.2 11.6zm4 8.933a.63.63 0 0 0-.667-.667c-.267 0-.4.133-.667.267a.693.693 0 0 0-.533-.267.532.532 0 0 0-.533.267v-.267h-.4V21.6h.4v-.933c0-.267.133-.533.4-.533a.354.354 0 0 1 .4.4v.933h.4v-.933c0-.267.133-.533.4-.533a.354.354 0 0 1 .4.4v.933h.4v-.8zm2.133-.667h-.4v.267a.693.693 0 0 0-.533-.267.933.933 0 1 0 0 1.867.693.693 0 0 0 .533-.267v.267h.4zm1.867 1.2a.61.61 0 0 0-.667-.533H16.4c-.133 0-.267 0-.267-.133s.133-.267.4-.267.4.133.533.133L17.2 20a1 1 0 0 0-.667-.133c-.4 0-.8.267-.8.533s.267.4.667.533h.133c.267 0 .267.133.267.133 0 .133-.133.267-.4.267s-.4-.133-.533-.133l-.133.267a1.9 1.9 0 0 0 .8.267.63.63 0 0 0 .666-.667zm1.733.4L18.8 21.2c0 .133-.133.133-.267.133a.287.287 0 0 1-.267-.267v-.8h.667v-.4h-.667v-.533h-.4v.533h-.4v.4h.4v.8c0 .4.133.667.667.667.134 0 .267-.133.4-.266zm2-.667a.892.892 0 0 0-.8-.933.933.933 0 1 0 0 1.867c.267 0 .533 0 .667-.267l-.133-.267a.8.8 0 0 1-.533.133c-.267 0-.533-.133-.533-.4h1.333zm1.467-.933h-.267c-.267 0-.4.133-.4.267v-.267h-.4V21.6h.4v-.933a.354.354 0 0 1 .4-.4h.267zm.533.933a.568.568 0 0 1 .933-.4l.134-.266a1.018 1.018 0 0 0-.667-.267.933.933 0 1 0 0 1.867.734.734 0 0 0 .667-.266V21.2a.49.49 0 0 1-.4.133.61.61 0 0 1-.667-.533zm3.2-.933h-.4v.267a.693.693 0 0 0-.533-.267.933.933 0 1 0 0 1.867.693.693 0 0 0 .533-.267v.267h.4zm1.6 0h-.267c-.267 0-.4.133-.4.267v-.267h-.4V21.6h.4v-.933a.354.354 0 0 1 .4-.4h.267zm2-.667h-.4v.933a.693.693 0 0 0-.533-.267.933.933 0 1 0 0 1.867.693.693 0 0 0 .533-.267v.267h.4zM30.8 11.6a6.667 6.667 0 1 0-13.333 0 6.6 6.6 0 0 0 6.667 6.667A6.686 6.686 0 0 0 30.8 11.6z" class="cls-1"/>
</svg>
