<svg xmlns="http://www.w3.org/2000/svg" width="40" height="26.667" viewBox="0 0 40 26.667">
    <defs>
        <style>
            .cls-1{fill:#fff;opacity:.7}
        </style>
    </defs>
    <path id="paypal_inverse" d="M36.667 0H3.333A3.3 3.3 0 0 0 0 3.333v20a3.3 3.3 0 0 0 3.333 3.333h33.334A3.3 3.3 0 0 0 40 23.333v-20A3.3 3.3 0 0 0 36.667 0zm-18.8 18.533H15.6a.354.354 0 0 1-.4-.4c0-.667.4-2.8 1.733-10.933a.574.574 0 0 1 .533-.533H21.6c2.133 0 3.733 1.333 3.333 3.6q-.6 3.6-4.4 3.6h-1.2c-.533 0-.667.133-.8.667zm8.4-5.6a3.886 3.886 0 0 1-4.133 3.333h-.267c-.267 0-.4.133-.533.4l-.4 2.8c0 .267-.267.4-.533.4h-1.468a.354.354 0 0 1-.4-.4l.8-4.933h1.2a4.782 4.782 0 0 0 5.2-4.267A2.535 2.535 0 0 1 26.4 12a1.977 1.977 0 0 1-.133.933z" class="cls-1"/>
</svg>
