<svg xmlns="http://www.w3.org/2000/svg" width="40" height="26.667" viewBox="0 0 40 26.667">
    <defs>
        <style>
            .cls-1{fill:#fff;opacity:.7}
        </style>
    </defs>
    <path id="visa_inverse" d="M32.8 11.867l.667 2.8H31.2L32.267 12l.4-.933zM40 3.333v20a3.3 3.3 0 0 1-3.333 3.333H3.333A3.3 3.3 0 0 1 0 23.333v-20A3.3 3.3 0 0 1 3.333 0h33.334A3.3 3.3 0 0 1 40 3.333zM11.467 18.267L15.733 8.4H12.8l-2.667 6.8-.267-1.333L8.933 9.2a1.166 1.166 0 0 0-1.2-.8h-4.4v.267a6.468 6.468 0 0 1 2.8 1.067l2.4 8.667zm8-9.867H16.8l-1.733 9.867h2.667zm7.733 6.667c0-1.067-.667-2-2.267-2.667-.933-.4-1.467-.8-1.467-1.2s.533-.8 1.6-.8a4.081 4.081 0 0 1 2 .4l.267.133.4-2.133a5.571 5.571 0 0 0-2.4-.4c-2.667 0-4.533 1.333-4.533 3.333 0 1.467 1.333 2.267 2.4 2.667 1.067.533 1.467.8 1.333 1.2 0 .667-.8.933-1.6.933A5.411 5.411 0 0 1 20.4 16l-.4-.133-.4 2.267a8.456 8.456 0 0 0 3.067.533c2.666-.267 4.533-1.6 4.533-3.6zm9.467 3.2L34.533 8.4H32.4a1.437 1.437 0 0 0-1.467.8l-4 9.067h2.8l.533-1.467h3.467L34 18.267z" class="cls-1"/>
</svg>
